<svg id="Capa_1" enable-background="new 0 0 512 512" height="512" viewBox="0 0 512 512" width="512" xmlns="http://www.w3.org/2000/svg"><g><path d="m512 256c0 141.385-114.615 256-256 256s-256-114.615-256-256 114.615-256 256-256 256 114.615 256 256z" fill="#3493f8"/><path d="m489.332 273.4c0 115.98-94.02 210-210 210s-210-94.02-210-210 94.02-210 210-210 210 94.02 210 210z" fill="#55a4f9"/><path d="m170.132 129.342c-.38 8.068-7.33 14.275-15.407 14.275h-76.397c-8.077 0-15.027-6.207-15.407-14.275-.406-8.614 6.458-15.725 14.983-15.725 6.763 0 12.245-5.482 12.245-12.245v-2.755c0-8.284 6.716-15 15-15h22.755c8.284 0 15 6.716 15 15v15h12.245c8.525 0 15.388 7.111 14.983 15.725zm289.1 10.12h-77.245c-8.284 0-15 6.716-15 15 0 8.284 6.716 15 15 15h77.245c8.284 0 15-6.716 15-15 0-8.284-6.715-15-15-15zm-45.755-19.921h13.289c8.284 0 15-6.716 15-15s-6.716-15-15-15h-13.289c-8.284 0-15 6.716-15 15s6.716 15 15 15zm-136.356-39.526h13.289c8.284 0 15-6.716 15-15s-6.716-15-15-15h-13.289c-8.284 0-15 6.716-15 15s6.716 15 15 15zm-98.428-51.677h-13.289c-8.284 0-15 6.716-15 15s6.716 15 15 15h13.289c8.284 0 15-6.716 15-15 0-8.285-6.716-15-15-15zm125.801 204.173h-50.325c-8.284 0-15 6.716-15 15 0 8.284 6.716 15 15 15h50.325c8.284 0 15-6.716 15-15 0-8.285-6.715-15-15-15z" fill="#76b6fa"/><path d="m452.448 420.156c-1.884 2.253-3.807 4.473-5.766 6.658-16.425 18.323-41.304 26.627-65.522 22.27l-101.515-18.265-4.102-88.453 51.279-53.349 13.782-33.017zm38.169-136.901-97.702-12.255v12.596l59.533 55.489zm-242.868 146.745h-174.2c-3.438 0-6.713-1.473-8.996-4.043-6.627-7.459-12.824-15.308-18.553-23.508v-220.449l191.567 8.986c9.06.425 16.891 6.462 19.606 15.117l10.463 33.345-9.981 14.021-54.145 96.042 31.08 22.83z" fill="#ffe7c0"/><path d="m321.132 438.284-41.487-7.464-4.102-88.453 51.279-53.349 13.782-33.018 18.594 27.29-5.661 19.634-44.833 58.869zm-241.323-254.698-33.809-1.586v220.449c5.729 8.2 11.926 16.049 18.553 23.508 2.284 2.571 5.558 4.043 8.996 4.043h6.26z" fill="#ffd993"/><path d="m316.105 329.321-40.784-38.013v-8.629l66.932 8.396zm-58.449 7.344 34.737 44.702 5.121-5.121-1.644-46.761z" fill="#0956c6"/><path d="m333.525 380.403 37.548-29.178-4.301-4.301-39.277 1.381zm-196.738-125.956v102.893c0 5.523 4.477 10 10 10h81.661c2.561 0 4.458-2.379 3.889-4.876l-7.763-34.018 48.256-72.446-2.059-6.563c-.932-2.97-3.684-4.99-6.796-4.99h-117.188c-5.522 0-10 4.477-10 10z" fill="#0a66ea"/><path d="m176.745 367.34h-29.957c-5.523 0-10-4.477-10-10v-102.893c0-5.523 4.477-10 10-10h29.957c-5.523 0-10 4.477-10 10v102.893c0 5.523 4.477 10 10 10z" fill="#0956c6"/><path d="m208.511 362.341v-112.894h62.263l-3.138-10h-120.849c-8.271 0-15 6.729-15 15v102.894c0 8.271 6.729 15 15 15h87.804l-2.282-10zm-66.724-5v-102.894c0-2.757 2.243-5 5-5h51.724v112.894h-51.724c-2.757 0-5-2.243-5-5z" fill="#dbad5c"/><path d="m505.523 258.266-232.542-51.175-5.31-60.584 61.356-25.904-9.749-71.112 190.718 201.108c.023.025.046.049.069.074 3.037 3.291-.168 8.556-4.542 7.593z" fill="#fb5858"/><path d="m257.237 206.66h-251.135c-4.676 0-6.729-6.077-2.894-8.752.029-.02.058-.04.087-.06l248.389-168.22c2.54-1.72 5.871-1.72 8.411 0l7.601 5.148c.866.587 1.527 1.43 1.888 2.412l25.347 68.828-56.681 40.133zm46.351-38.173 75.257-31.773-3.917-28.574-55.62-58.65 9.749 71.112-61.356 25.904 5.31 60.584 34.628 7.621z" fill="#f44545"/><path d="m6.102 206.66c-4.676 0-6.729-6.077-2.894-8.752.029-.02.058-.04.087-.06l248.389-168.22c2.54-1.72 5.871-1.72 8.411 0l7.601 5.148c.866.587 1.527 1.43 1.888 2.412l1.891 5.135-242.655 164.337z" fill="#d63030"/><path d="m448.293 425c-46.916 53.34-115.673 87-192.293 87-59.683 0-104.825-20.424-144.04-54.663-12.83-11.202-4.872-32.337 12.16-32.337h218.1l-7.476-7.476c-1.847-1.847-2.146-4.846-.483-6.859 1.908-2.31 5.335-2.431 7.402-.364l11.569 11.569c.206-.343.457-.667.753-.963l13.99-13.99c1.847-1.847 4.846-2.146 6.859-.483 2.31 1.908 2.431 5.335.364 7.402l-11.162 11.164z" fill="#1ab975"/><path d="m157.38 450.292c36.671 31.492 82.358 52.781 132.66 59.464-11.137 1.48-22.499 2.244-34.04 2.244-76.62 0-145.377-33.66-192.293-87h68.08c4.658 5.296 9.532 10.398 14.607 15.292h39.99c2.761 0 5 2.239 5 5s-2.239 5-5 5zm94.005 16.341h21.199c2.761 0 5-2.239 5-5 0-2.761-2.239-5-5-5h-21.199c-2.761 0-5 2.239-5 5 0 2.761 2.239 5 5 5zm54.146 9.05h-21.199c-2.761 0-5 2.239-5 5s2.239 5 5 5h21.199c2.761 0 5-2.239 5-5s-2.239-5-5-5zm72.056-35.391h-21.199c-2.761 0-5 2.239-5 5s2.239 5 5 5h21.199c2.761 0 5-2.239 5-5s-2.238-5-5-5z" fill="#169b62"/></g></svg>