<svg height="512pt" viewBox="0 0 512 512" width="512pt" xmlns="http://www.w3.org/2000/svg"><path d="m0 256c0-141.386719 114.613281-256 256-256s256 114.613281 256 256c0 70.691406-28.652344 134.691406-74.980469 181.019531s-110.328125-11.019531-181.019531-11.019531c-70.355469 0-134.082031 57.617188-180.355469 11.679688-46.71875-46.378907-75.644531-110.652344-75.644531-181.679688zm0 0" fill="#fad818"/><path d="m256 426c70.691406 0 134.691406 57.347656 181.019531 11.019531s74.980469-110.328125 74.980469-181.019531c0-2.976562-.070312-5.941406-.171875-8.894531l-189.257813-189.257813c-13.742187-15.824218-151.5 63.152344-151.5 63.152344l-6.6875 51.867188c-10.292968 1.929687-11.472656 48.4375-7.675781 51.679687 0 0 43.496094 51.011719 51.519531 58.546875v41.90625l-132.578124 112.671875c.242187.242187.492187.472656.734374.710937 46.210938 44.609376 109.632813-12.382812 179.617188-12.382812zm0 0" fill="#f4b913"/><path d="m320.808594 208.535156c-12.65625 0-24.113282 5.132813-32.402344 13.429688-8.292969-8.296875-19.75-13.429688-32.40625-13.429688s-24.113281 5.132813-32.402344 13.429688c-8.292968-8.296875-19.75-13.429688-32.40625-13.429688-25.296875 0-45.808594 20.507813-45.808594 45.808594s20.511719 45.808594 45.808594 45.808594c12.65625 0 24.117188-5.132813 32.40625-13.429688 8.289063 8.296875 19.746094 13.429688 32.402344 13.429688s24.113281-5.132813 32.40625-13.429688c8.289062 8.296875 19.746094 13.429688 32.402344 13.429688 25.300781 0 45.808594-20.507813 45.808594-45.808594 0-25.296875-20.507813-45.808594-45.808594-45.808594zm0 0" fill="#ff4e0a"/><path d="m366.621094 254.339844c0 25.300781-20.511719 45.808594-45.8125 45.808594-12.660156 0-24.109375-5.128907-32.410156-13.429688-8.289063 8.300781-19.738282 13.429688-32.398438 13.429688v-91.609376c12.660156 0 24.109375 5.132813 32.398438 13.429688 8.300781-8.296875 19.75-13.429688 32.410156-13.429688 25.300781 0 45.8125 20.5 45.8125 45.800782zm0 0" fill="#fa0023"/><path d="m208.226562 272.222656h95.546876v59.445313h-95.546876zm0 0" fill="#57545c"/><path d="m256 272.21875h47.769531v59.453125h-47.769531zm0 0" fill="#3a383f"/><path d="m347.617188 172.867188c-3.824219-56.308594-51.847657-88.269532-91.617188-88.269532s-87.792969 31.960938-91.617188 88.269532c-10.292968 1.929687-17.59375 11.546874-16.449218 22.121093l1.769531 16.363281c1.203125 11.101563 11.269531 19.199219 22.371094 17.996094l1.910156-.207031c22.722656 59.148437 59.394531 74.378906 82.015625 77.835937 22.621094-3.457031 59.289062-18.6875 82.015625-77.835937l1.910156.207031c11.101563 1.203125 21.167969-6.894531 22.371094-17.996094l1.769531-16.363281c1.144532-10.574219-6.15625-20.191406-16.449218-22.121093zm0 0" fill="#ffdba9"/><path d="m364.066406 194.988281-1.773437 16.367188c-1.203125 11.097656-11.265625 19.191406-22.363281 17.988281l-1.910157-.203125c-22.726562 59.148437-59.398437 74.378906-82.019531 77.839844v-222.378907c39.773438 0 87.789062 31.960938 91.613281 88.265626 10.296875 1.933593 17.597657 11.546874 16.453125 22.121093zm0 0" fill="#ffc473"/><path d="m340.929688 159.332031h-169.859376v-52.367187c0-41.402344 33.5625-74.964844 74.964844-74.964844h19.929688c41.402344 0 74.964844 33.5625 74.964844 74.964844zm0 0" fill="#57545c"/><path d="m340.929688 106.960938v52.367187h-84.929688v-127.328125h9.960938c41.410156 0 74.96875 33.558594 74.96875 74.960938zm0 0" fill="#3a383f"/><path d="m312.425781 195.789062h-56.425781v66.359376h20.046875v-47.757813h36.378906zm0 0" fill="#ffaa20"/><path d="m366.367188 325h-220.734376c-38.648437 0-69.984374 31.332031-69.984374 69.984375v42.6875c46.277343 45.941406 109.996093 74.328125 180.351562 74.328125s134.074219-28.386719 180.351562-74.328125v-42.6875c0-38.652344-31.335937-69.984375-69.984374-69.984375zm0 0" fill="#797880"/><path d="m436.351562 394.980469v42.691406c-46.273437 45.9375-109.992187 74.328125-180.351562 74.328125v-187h110.371094c21.457031 0 40.660156 9.648438 53.480468 24.859375 10.296876 12.179687 16.5 27.929687 16.5 45.121094zm0 0" fill="#57545c"/><path d="m123.800781 392v83.261719c9.601563 5.800781 19.625 10.976562 30 15.5v-98.761719zm0 0" fill="#57545c"/><path d="m358.199219 392v98.761719c10.375-4.523438 20.398437-9.699219 30-15.5v-83.261719zm0 0" fill="#3a383f"/><path d="m164.382812 121h183.234376v51.867188h-183.234376zm0 0" fill="#797880"/><path d="m256 121h91.621094v51.871094h-91.621094zm0 0" fill="#57545c"/><path d="m312.804688 180h-36.257813c-8.417969 0-15.894531 4.152344-20.546875 10.492188-4.652344-6.339844-12.128906-10.492188-20.546875-10.492188h-36.257813c-14.027343 0-25.5 11.476562-25.5 25.5s11.472657 25.5 25.5 25.5h36.257813c8.417969 0 15.894531-4.152344 20.546875-10.492188 4.652344 6.339844 12.128906 10.492188 20.546875 10.492188h36.257813c14.027343 0 25.5-11.476562 25.5-25.5s-11.472657-25.5-25.5-25.5zm0 0" fill="#57545c"/><path d="m338.308594 205.5c0 14.03125-11.480469 25.5-25.5 25.5h-36.257813c-8.421875 0-15.902343-4.148438-20.550781-10.488281v-30.023438c4.648438-6.339843 12.128906-10.488281 20.550781-10.488281h36.257813c7.011718 0 13.390625 2.871094 18.011718 7.488281 4.621094 4.621094 7.488282 10.992188 7.488282 18.011719zm0 0" fill="#3a383f"/><path d="m215.5 193.933594c-11.476562 0-18.140625 6.132812-22.957031 11.566406 4.816406 5.433594 11.480469 11.566406 22.957031 11.566406s18.140625-6.132812 22.957031-11.566406c-4.816406-5.433594-11.480469-11.566406-22.957031-11.566406zm0 0" fill="#fff"/><path d="m296.5 193.933594c-11.476562 0-18.140625 6.132812-22.957031 11.566406 4.816406 5.433594 11.480469 11.566406 22.957031 11.566406s18.140625-6.132812 22.957031-11.566406c-4.816406-5.433594-11.480469-11.566406-22.957031-11.566406zm0 0" fill="#fff5ca"/></svg>