<svg id="Capa_1" enable-background="new 0 0 512 512" height="512" viewBox="0 0 512 512" width="512" xmlns="http://www.w3.org/2000/svg"><g><path d="m480.107 203.05-224.107-20-20 308.95 195.322 20h48.785z" fill="#c50048"/><path d="m31.893 203.05v308.95h48.785l175.322-20v-308.95z" fill="#ff415b"/><path d="m512 69.632h-256l-20 66.709 20 66.709h256z" fill="#ff415b"/><path d="m0 69.632h256v133.418h-256z" fill="#ff7c48"/><path d="m431.322 251.836h-175.322l-20 240.164 165.322 20h30z" fill="#e1ebf0"/><path d="m80.678 251.836v260.164h30l145.322-20v-240.164z" fill="#fff5f5"/><path d="m342.525 86.525c0-47.786-38.739-86.525-86.525-86.525l-20 86.525 20 86.525c47.786 0 86.525-38.738 86.525-86.525z" fill="#e1ebf0"/><path d="m169.475 86.525c0 47.786 38.739 86.525 86.525 86.525v-173.05c-47.786 0-86.525 38.739-86.525 86.525z" fill="#fff5f5"/><path d="m256 281.836-20 77.541 165.322-20v-57.541z" fill="#b4d2d7"/><path d="m256 281.836h-145.322v57.541l145.322 20z" fill="#e1ebf0"/><path d="m236 416.918 165.322-20v-57.541h-145.322z" fill="#87a0af"/><path d="m256 339.377h-145.322v57.541l145.322 20z" fill="#b4d2d7"/><path d="m294.693 92.974c0-33.31-38.693-51.59-38.693-51.59l-20 45.141 20 45.141c21.369.001 38.693-17.323 38.693-38.692z" fill="#ffb655"/><path d="m217.307 92.974c0 21.369 17.323 38.693 38.693 38.693v-90.283s-38.693 18.28-38.693 51.59z" fill="#ffde55"/><path d="m236 474.459 165.322-20v-57.541h-145.322z" fill="#b4d2d7"/><path d="m256 396.918h-145.322v57.541l145.322 20z" fill="#e1ebf0"/><path d="m256 512h145.322v-57.541h-145.322l-20 28.77z" fill="#87a0af"/><path d="m110.678 454.459h145.322v57.541h-145.322z" fill="#b4d2d7"/></g></svg>