<svg id="Capa_1" enable-background="new 0 0 512 512" height="512" viewBox="0 0 512 512" width="512" xmlns="http://www.w3.org/2000/svg"><g><path d="m512 256c0 141.385-114.615 256-256 256s-256-114.615-256-256 114.615-256 256-256 256 114.615 256 256z" fill="#f44545"/><path d="m448.66 256c0 106.403-86.257 192.66-192.66 192.66s-192.66-86.257-192.66-192.66 86.257-192.66 192.66-192.66 192.66 86.257 192.66 192.66z" fill="#fb5858"/><path d="m206 349.364c0 10.217-33.131 18.5-74 18.5s-74-8.283-74-18.5 33.131-18.5 74-18.5 74 8.283 74 18.5zm150.702 116.381c0 10.217-33.131 18.5-74 18.5s-74-8.283-74-18.5 33.131-18.5 74-18.5 74 8.283 74 18.5z" fill="#c42d2d"/><path d="m291 69v186c0 22.091-17.909 40-40 40h-92.037l-19.853 43.868c-3.546 7.836-14.675 7.836-18.221 0l-19.852-43.868h-40.037c-22.091 0-40-17.909-40-40v-186c0-22.091 17.909-40 40-40h190c22.091 0 40 17.909 40 40z" fill="#ffc14f"/><path d="m301 69v186c0 22.091-17.909 40-40 40h-17c-73.454 0-133-59.546-133-133 0-73.454 59.546-133 133-133h17c22.091 0 40 17.909 40 40z" fill="#fff36c"/><path d="m217.816 213.429c3.905 3.905 3.905 10.237 0 14.143-1.953 1.953-4.512 2.929-7.071 2.929s-5.118-.976-7.071-2.929l-57.929-57.929-57.929 57.929c-1.953 1.953-4.512 2.929-7.071 2.929s-5.118-.976-7.071-2.929c-3.905-3.905-3.905-10.237 0-14.143l57.929-57.929-57.929-57.929c-3.905-3.905-3.905-10.237 0-14.143 3.906-3.905 10.236-3.905 14.143 0l57.929 57.929 57.929-57.929c3.906-3.905 10.236-3.905 14.143 0 3.905 3.905 3.905 10.237 0 14.143l-57.93 57.929z" fill="#464646"/><path d="m449.511 190v186c0 22.091-17.909 40-40 40h-90.548l-19.853 43.868c-3.546 7.836-14.675 7.836-18.221 0l-19.852-43.868h-20.037c-22.091 0-40-17.909-40-40v-186c0-22.091 17.909-40 40-40h168.511c22.091 0 40 17.909 40 40z" fill="#c8e2fd"/><path d="m491 190v186c0 22.091-17.909 40-40 40h-47c-73.454 0-133-59.546-133-133 0-73.454 59.546-133 133-133h47c22.091 0 40 17.909 40 40z" fill="#e9f3fe"/><path d="m321.906 233.49.91 94.112c0 5.458-3.01 9.91-7.667 11.365-4.542 1.419-9.357-.384-12.27-4.591l-48.31-69.956v66.556c0 5.27-4.287 9.556-9.556 9.556s-9.556-4.287-9.556-9.556v-97.211c0-4.205 2.697-7.871 6.712-9.123 4.019-1.249 8.322.235 10.709 3.693l50.573 73.235-.657-67.894c-.024-2.553.946-4.962 2.733-6.785 1.788-1.822 4.178-2.839 6.73-2.864h.094c5.219 0 9.505 4.245 9.555 9.463zm134.637 50.23c0 32.121-26.132 58.253-58.253 58.253-32.12 0-58.252-26.132-58.252-58.253s26.132-58.253 58.252-58.253c32.121 0 58.253 26.132 58.253 58.253zm-19.112 0c0-21.582-17.559-39.14-39.141-39.14s-39.14 17.558-39.14 39.14 17.558 39.141 39.14 39.141 39.141-17.559 39.141-39.141z" fill="#3f7196"/></g></svg>